<?xml version="1.0" encoding="UTF-8" standalone="no"?>
<!-- Created with Inkscape (http://www.inkscape.org/) -->

<svg
   xmlns:dc="http://purl.org/dc/elements/1.1/"
   xmlns:cc="http://creativecommons.org/ns#"
   xmlns:rdf="http://www.w3.org/1999/02/22-rdf-syntax-ns#"
   xmlns:svg="http://www.w3.org/2000/svg"
   xmlns="http://www.w3.org/2000/svg"
   xmlns:sodipodi="http://sodipodi.sourceforge.net/DTD/sodipodi-0.dtd"
   xmlns:inkscape="http://www.inkscape.org/namespaces/inkscape"
   width="210mm"
   height="297mm"
   viewBox="0 0 210 297"
   version="1.1"
   id="svg8"
   inkscape:version="0.92.4 (5da689c313, 2019-01-14)"
   sodipodi:docname="face.svg">
  <defs
     id="defs2" />
  <sodipodi:namedview
     id="base"
     pagecolor="#ffffff"
     bordercolor="#666666"
     borderopacity="1.0"
     inkscape:pageopacity="0.0"
     inkscape:pageshadow="2"
     inkscape:zoom="2.8"
     inkscape:cx="373.58524"
     inkscape:cy="713.28131"
     inkscape:document-units="mm"
     inkscape:current-layer="layer1"
     showgrid="false"
     showguides="true"
     inkscape:guide-bbox="true"
     inkscape:window-width="2736"
     inkscape:window-height="1699"
     inkscape:window-x="-13"
     inkscape:window-y="-13"
     inkscape:window-maximized="1" />
  <metadata
     id="metadata5">
    <rdf:RDF>
      <cc:Work
         rdf:about="">
        <dc:format>image/svg+xml</dc:format>
        <dc:type
           rdf:resource="http://purl.org/dc/dcmitype/StillImage" />
        <dc:title></dc:title>
      </cc:Work>
    </rdf:RDF>
  </metadata>
  <g
     inkscape:label="Ebene 1"
     inkscape:groupmode="layer"
     id="layer1">
    <path
       style="fill:#ffd42a;fill-opacity:1;stroke:#b3b3b3;stroke-width:0.02267717;stroke-miterlimit:4;stroke-dasharray:0.18141732, 0.02267717;stroke-dashoffset:0"
       d="M 321.42773 140.37695 A 169.28572 170.71427 0 0 0 164.62305 247.05078 A 45.714286 57.142853 0 0 0 160.71484 246.80469 A 45.714286 57.142853 0 0 0 115 303.94922 A 45.714286 57.142853 0 0 0 159.7207 361.0293 A 169.28572 170.71427 0 0 0 321.42773 481.80469 A 169.28572 170.71427 0 0 0 480.79102 368.07227 A 45.714286 57.142853 0 0 0 518.57227 311.80469 A 45.714286 57.142853 0 0 0 481.33594 255.6875 A 169.28572 170.71427 0 0 0 321.42773 140.37695 z M 260.35742 249.66406 A 35.354883 32.497742 0 0 1 295.71289 282.16211 A 35.354883 32.497742 0 0 1 260.35742 314.66016 A 35.354883 32.497742 0 0 1 225.00195 282.16211 A 35.354883 32.497742 0 0 1 260.35742 249.66406 z M 382.85742 250.02148 A 35.354883 32.497742 0 0 1 418.21289 282.51953 A 35.354883 32.497742 0 0 1 382.85742 315.01758 A 35.354883 32.497742 0 0 1 347.50195 282.51953 A 35.354883 32.497742 0 0 1 382.85742 250.02148 z "
       id="path4518"
       transform="scale(0.26458333)" />
    <path
       style="fill:#0098ff;fill-opacity:1;stroke:#00a2ff;stroke-width:0;stroke-miterlimit:4;stroke-dasharray:none;stroke-dashoffset:0;stroke-opacity:1"
       d="M 261.25 270.25781 A 15.29726 14.761546 0 0 0 245.95312 285.01953 A 15.29726 14.761546 0 0 0 261.25 299.78125 A 15.29726 14.761546 0 0 0 276.54688 285.01953 A 15.29726 14.761546 0 0 0 261.25 270.25781 z M 257.32227 276.73438 A 1.9642858 4.9999998 0 0 1 259.28516 281.73438 A 1.9642858 4.9999998 0 0 1 257.32227 286.73438 A 1.9642858 4.9999998 0 0 1 255.35742 281.73438 A 1.9642858 4.9999998 0 0 1 257.32227 276.73438 z "
       transform="scale(0.26458333)"
       id="path4560" />
    <path
       style="fill:#0098ff;fill-opacity:1;stroke:#00a2ff;stroke-width:0;stroke-miterlimit:4;stroke-dasharray:none;stroke-dashoffset:0;stroke-opacity:1"
       d="M 385 270.61523 A 15.29726 14.761547 0 0 0 369.70312 285.37695 A 15.29726 14.761547 0 0 0 385 300.13867 A 15.29726 14.761547 0 0 0 400.29688 285.37695 A 15.29726 14.761547 0 0 0 385 270.61523 z M 380.35742 276.80469 A 1.9642858 4.9999998 0 0 1 382.32227 281.80469 A 1.9642858 4.9999998 0 0 1 380.35742 286.80469 A 1.9642858 4.9999998 0 0 1 378.39258 281.80469 A 1.9642858 4.9999998 0 0 1 380.35742 276.80469 z "
       transform="scale(0.26458333)"
       id="path4560-1" />
    <path
       style="fill:#ff0000;fill-opacity:1;stroke:#00a2ff;stroke-width:0;stroke-miterlimit:4;stroke-dasharray:none;stroke-dashoffset:0;stroke-opacity:1"
       d="m 77.768598,67.71019 c 0,1.957036 -3.859766,0.04725 -8.504465,0.04725 -4.644698,0 -8.315476,1.909789 -8.315476,-0.04725 0,-1.957036 3.765272,-3.543527 8.40997,-3.543527 4.644699,0 8.409971,1.586491 8.409971,3.543527 z"
       id="path4596"
       inkscape:connector-curvature="0"
       sodipodi:nodetypes="sssss" />
    <path
       style="fill:#ff0000;fill-opacity:1;stroke:#00a2ff;stroke-width:0;stroke-miterlimit:4;stroke-dasharray:none;stroke-dashoffset:0;stroke-opacity:1"
       d="m 109.5186,68.237649 c 0,1.957036 -3.85976,0.04725 -8.50446,0.04725 -4.644702,0 -8.31548,1.909789 -8.31548,-0.04725 0,-1.957036 3.765272,-3.543527 8.40997,-3.543527 4.6447,0 8.40997,1.586491 8.40997,3.543527 z"
       id="path4596-3"
       inkscape:connector-curvature="0"
       sodipodi:nodetypes="sssss" />
    <path
       style="fill:#ff0000;fill-opacity:1;stroke:#00a2ff;stroke-width:0;stroke-miterlimit:4;stroke-dasharray:none;stroke-dashoffset:0;stroke-opacity:1"
       d="m 82.587794,72.245904 c 0,1.957036 -2.112528,11.107291 -13.701637,11.00856 -9.30623,-0.07928 -12.095238,-10.279943 -12.095238,-12.236982 0,-1.957036 7.92301,-6.850819 12.567708,-6.850819 4.644699,0 13.229167,6.122205 13.229167,8.079241 z"
       id="path4596-0"
       inkscape:connector-curvature="0"
       sodipodi:nodetypes="sssss" />
    <path
       style="fill:#ff0000;fill-opacity:1;stroke:#00a2ff;stroke-width:0;stroke-miterlimit:4;stroke-dasharray:none;stroke-dashoffset:0;stroke-opacity:1"
       d="m 112.54241,72.489881 c 0,1.957036 -2.72664,11.783075 -11.62276,11.386536 C 90.13702,83.395788 90.430806,73.596474 90.430806,71.639435 c 0,-1.957036 6.033129,-6.945313 10.677824,-6.945313 4.6447,0 11.43378,5.838723 11.43378,7.795759 z"
       id="path4596-3-3"
       inkscape:connector-curvature="0"
       sodipodi:nodetypes="sssss" />
  </g>
</svg>
